<mxfile host="Electron" modified="2023-09-15T15:24:03.892Z" agent="Mozilla/5.0 (Windows NT 10.0; Win64; x64) AppleWebKit/537.36 (KHTML, like Gecko) draw.io/21.6.5 Chrome/114.0.5735.243 Electron/25.3.1 Safari/537.36" etag="tQ9Kna5l_h7e9UYWKS3C" version="21.6.5" type="device">
  <diagram name="Page-1" id="UID9mCXfoSCbW1tlq4wa">
    <mxGraphModel dx="1036" dy="606" grid="1" gridSize="10" guides="1" tooltips="1" connect="1" arrows="1" fold="1" page="1" pageScale="1" pageWidth="827" pageHeight="1169" math="0" shadow="0">
      <root>
        <mxCell id="0" />
        <mxCell id="1" parent="0" />
        <mxCell id="Grjfgw6P4tNUDYJqKguk-1" value="" style="rounded=0;whiteSpace=wrap;html=1;dashed=1;dashPattern=12 12;fillColor=#f9f7ed;strokeColor=#36393d;" parent="1" vertex="1">
          <mxGeometry x="310" y="41" width="610" height="290" as="geometry" />
        </mxCell>
        <mxCell id="Grjfgw6P4tNUDYJqKguk-2" value="&lt;b&gt;DataSupplier - Service&lt;/b&gt;&lt;br&gt;&lt;br&gt;Integrate with various Agencies and download trip details" style="rounded=1;whiteSpace=wrap;html=1;fillColor=#dae8fc;strokeColor=#6c8ebf;fontStyle=0" parent="1" vertex="1">
          <mxGeometry x="461" y="115" width="150" height="140" as="geometry" />
        </mxCell>
        <mxCell id="Grjfgw6P4tNUDYJqKguk-12" value="Database" style="shape=datastore;whiteSpace=wrap;html=1;fillColor=#dae8fc;strokeColor=#6c8ebf;" parent="1" vertex="1">
          <mxGeometry x="794" y="143" width="100" height="97" as="geometry" />
        </mxCell>
        <mxCell id="Grjfgw6P4tNUDYJqKguk-17" value="&lt;b&gt;Airline booking system&lt;/b&gt;" style="rounded=1;whiteSpace=wrap;html=1;fillColor=#bac8d3;strokeColor=#23445d;fontStyle=0" parent="1" vertex="1">
          <mxGeometry x="320" y="350" width="141" height="90" as="geometry" />
        </mxCell>
        <mxCell id="Grjfgw6P4tNUDYJqKguk-18" value="&lt;b&gt;Hotel reservation system&lt;/b&gt;" style="rounded=1;whiteSpace=wrap;html=1;fillColor=#bac8d3;strokeColor=#23445d;fontStyle=0" parent="1" vertex="1">
          <mxGeometry x="490" y="350" width="141" height="90" as="geometry" />
        </mxCell>
        <mxCell id="Grjfgw6P4tNUDYJqKguk-19" value="&lt;b&gt;Train booking system&lt;/b&gt;" style="rounded=1;whiteSpace=wrap;html=1;fillColor=#bac8d3;strokeColor=#23445d;fontStyle=0" parent="1" vertex="1">
          <mxGeometry x="670" y="350" width="141" height="90" as="geometry" />
        </mxCell>
        <mxCell id="Grjfgw6P4tNUDYJqKguk-32" value="" style="line;strokeWidth=2;html=1;" parent="1" vertex="1">
          <mxGeometry x="390" y="293" width="348" height="10" as="geometry" />
        </mxCell>
        <mxCell id="Grjfgw6P4tNUDYJqKguk-34" value="" style="endArrow=classic;html=1;rounded=0;entryX=0.5;entryY=0;entryDx=0;entryDy=0;arcSize=20;" parent="1" target="Grjfgw6P4tNUDYJqKguk-17" edge="1">
          <mxGeometry width="50" height="50" relative="1" as="geometry">
            <mxPoint x="391" y="296" as="sourcePoint" />
            <mxPoint x="438" y="246" as="targetPoint" />
          </mxGeometry>
        </mxCell>
        <mxCell id="Grjfgw6P4tNUDYJqKguk-35" value="" style="endArrow=classic;html=1;rounded=0;entryX=0.5;entryY=0;entryDx=0;entryDy=0;arcSize=20;" parent="1" edge="1">
          <mxGeometry width="50" height="50" relative="1" as="geometry">
            <mxPoint x="556" y="298" as="sourcePoint" />
            <mxPoint x="556" y="352" as="targetPoint" />
          </mxGeometry>
        </mxCell>
        <mxCell id="Grjfgw6P4tNUDYJqKguk-36" value="" style="endArrow=classic;html=1;rounded=0;entryX=0.5;entryY=0;entryDx=0;entryDy=0;arcSize=20;" parent="1" edge="1">
          <mxGeometry width="50" height="50" relative="1" as="geometry">
            <mxPoint x="737" y="298" as="sourcePoint" />
            <mxPoint x="737" y="352" as="targetPoint" />
          </mxGeometry>
        </mxCell>
        <mxCell id="Grjfgw6P4tNUDYJqKguk-37" value="" style="endArrow=classic;html=1;rounded=0;entryX=0.028;entryY=0.396;entryDx=0;entryDy=0;entryPerimeter=0;" parent="1" target="Grjfgw6P4tNUDYJqKguk-12" edge="1">
          <mxGeometry width="50" height="50" relative="1" as="geometry">
            <mxPoint x="611" y="180" as="sourcePoint" />
            <mxPoint x="661" y="130" as="targetPoint" />
          </mxGeometry>
        </mxCell>
        <mxCell id="Grjfgw6P4tNUDYJqKguk-38" value="" style="endArrow=classic;html=1;rounded=0;" parent="1" target="Grjfgw6P4tNUDYJqKguk-2" edge="1">
          <mxGeometry width="50" height="50" relative="1" as="geometry">
            <mxPoint x="534" y="297" as="sourcePoint" />
            <mxPoint x="584" y="247" as="targetPoint" />
          </mxGeometry>
        </mxCell>
        <mxCell id="Grjfgw6P4tNUDYJqKguk-39" value="&lt;b&gt;Service&lt;/b&gt;&lt;br&gt;&lt;br&gt;API" style="rounded=1;whiteSpace=wrap;html=1;fillColor=#dae8fc;strokeColor=#6c8ebf;fontStyle=0" parent="1" vertex="1">
          <mxGeometry x="50" y="70" width="150" height="140" as="geometry" />
        </mxCell>
        <mxCell id="Grjfgw6P4tNUDYJqKguk-40" value="Synchronous" style="endArrow=classic;html=1;rounded=0;" parent="1" edge="1">
          <mxGeometry width="50" height="50" relative="1" as="geometry">
            <mxPoint x="50" y="270" as="sourcePoint" />
            <mxPoint x="200" y="270" as="targetPoint" />
          </mxGeometry>
        </mxCell>
        <mxCell id="Grjfgw6P4tNUDYJqKguk-42" value="Legend" style="text;html=1;strokeColor=none;fillColor=none;align=center;verticalAlign=middle;whiteSpace=wrap;rounded=0;fontStyle=1" parent="1" vertex="1">
          <mxGeometry x="40" y="11" width="60" height="30" as="geometry" />
        </mxCell>
      </root>
    </mxGraphModel>
  </diagram>
</mxfile>
